<svg xmlns="http://www.w3.org/2000/svg" viewBox="0 0 200 200" width="200" height="200">
  <rect width="200" height="200" fill="#fff"/>
  <rect x="20" y="20" width="60" height="60" fill="#333"/>
  <rect x="30" y="30" width="40" height="40" fill="#fff"/>
  <rect x="40" y="40" width="20" height="20" fill="#333"/>
  <rect x="120" y="20" width="60" height="60" fill="#333"/>
  <rect x="130" y="30" width="40" height="40" fill="#fff"/>
  <rect x="140" y="40" width="20" height="20" fill="#333"/>
  <rect x="20" y="120" width="60" height="60" fill="#333"/>
  <rect x="30" y="130" width="40" height="40" fill="#fff"/>
  <rect x="40" y="140" width="20" height="20" fill="#333"/>
  <rect x="90" y="20" width="20" height="20" fill="#333"/>
  <rect x="90" y="50" width="20" height="20" fill="#333"/>
  <rect x="20" y="90" width="20" height="20" fill="#333"/>
  <rect x="50" y="90" width="20" height="20" fill="#333"/>
  <rect x="90" y="90" width="20" height="20" fill="#333"/>
  <rect x="120" y="90" width="20" height="20" fill="#333"/>
  <rect x="150" y="90" width="20" height="20" fill="#333"/>
  <rect x="90" y="120" width="20" height="20" fill="#333"/>
  <rect x="120" y="120" width="20" height="20" fill="#333"/>
  <rect x="150" y="120" width="20" height="20" fill="#333"/>
  <rect x="90" y="150" width="20" height="20" fill="#333"/>
  <rect x="120" y="150" width="20" height="20" fill="#333"/>
  <rect x="150" y="150" width="20" height="20" fill="#333"/>
  <rect x="170" y="170" width="10" height="10" fill="#333"/>
  <text x="100" y="195" text-anchor="middle" font-size="10" fill="#999">扫码体验</text>
</svg>
